<?xml version="1.0" encoding="UTF-8"?>
<!DOCTYPE svg PUBLIC "-//W3C//DTD SVG 1.1//EN" "http://www.w3.org/Graphics/SVG/1.1/DTD/svg11.dtd">
<!-- Creator: CorelDRAW 2019 (64 Bit) -->
<svg xmlns="http://www.w3.org/2000/svg" xml:space="preserve" width="52.9167mm" height="43.4664mm" version="1.1" style="shape-rendering:geometricPrecision; text-rendering:geometricPrecision; image-rendering:optimizeQuality; fill-rule:evenodd; clip-rule:evenodd"
viewBox="0 0 1850.07 1519.67"
 xmlns:xlink="http://www.w3.org/1999/xlink">
 <defs>
  <style type="text/css">
   <![CDATA[
    .fil0 {fill:black;fill-opacity:0.400000}
   ]]>
  </style>
 </defs>
 <g id="Camada_x0020_1">
  <metadata id="CorelCorpID_0Corel-Layer"/>
  <path class="fil0" d="M330.38 991.09l-251.96 -251.96 -27.02 -27.01 -42.05 -42.05 -9.35 -9.35 60.1 -60.1 36.19 -36.19 217.62 -217.62 26.26 -26.26 177.56 -177.56 10.85 -10.85 297.33 297.34 -8.75 9.92 -190.33 215.71 -186.33 211.17 -110.12 124.8zm133.99 -662.32l64.75 -64.75 64.75 64.75 -64.75 64.75 -64.75 -64.75zm131.36 133.2l64.75 -64.75 64.75 64.75 -64.75 64.75 -64.75 -64.75zm-462.52 199.81l64.75 -64.75 64.75 64.75 -64.75 64.75 -64.75 -64.75zm133.2 131.36l64.75 -64.75 64.75 64.75 -64.75 64.75 -64.75 -64.75zm989.78 -593.87l64.75 -64.75 64.75 64.75 -64.75 64.75 -64.75 -64.75zm-131.36 131.35l64.75 -64.75 64.75 64.75 -64.75 64.75 -64.75 -64.75zm-133.2 131.36l64.75 -64.75 64.75 64.75 -64.75 64.75 -64.75 -64.75zm-131.36 133.2l64.75 -64.75 64.75 64.75 -64.75 64.75 -64.75 -64.75zm-131.35 131.36l64.75 -64.75 64.75 64.75 -64.75 64.75 -64.75 -64.75zm-133.2 131.36l64.75 -64.75 64.75 64.75 -64.75 64.75 -64.75 -64.75zm-131.36 133.2l64.75 -64.75 64.75 64.75 -64.75 64.75 -64.75 -64.75zm1122.99 -462.52l64.75 -64.75 64.75 64.75 -64.75 64.75 -64.75 -64.75zm-133.2 131.36l64.75 -64.75 64.75 64.75 -64.75 64.75 -64.75 -64.75zm-133.2 131.36l64.75 -64.75 64.75 64.75 -64.75 64.75 -64.75 -64.75zm-129.51 133.2l64.75 -64.75 64.75 64.75 -64.75 64.75 -64.75 -64.75zm-133.2 133.2l64.75 -64.75 64.75 64.75 -64.75 64.75 -64.75 -64.75zm-131.35 131.36l64.75 -64.75 64.75 64.75 -64.75 64.75 -64.75 -64.75zm-133.21 131.35l64.75 -64.75 64.75 64.75 -64.75 64.75 -64.75 -64.75zm527.79 -1320.4l169.44 169.44 44.51 44.51 314.63 314.62 0.02 0.02 -9.37 9.33 -3.62 3.62 -341.41 341.41 -235.73 235.72 -333.81 333.82 -67.18 67.18 -348.08 -348.08 -171.15 -171.15 -9.35 -9.35 9.79 -9.79 110.38 -110.38 183.22 -183.22 123.28 -123.28 101.91 -101.91 56.59 -56.59 169.86 -169.85 223.39 -223.4 12.69 -12.68zm-1007.56 346.81l-217.62 217.62 217.62 -217.62z"/>
 </g>
</svg>
